<?xml version="1.0" standalone="no"?><!DOCTYPE svg PUBLIC "-//W3C//DTD SVG 1.1//EN" "http://www.w3.org/Graphics/SVG/1.1/DTD/svg11.dtd"><svg t="1625901139495" class="icon" viewBox="0 0 1024 1024" version="1.1" xmlns="http://www.w3.org/2000/svg" p-id="6085" width="512" height="512" xmlns:xlink="http://www.w3.org/1999/xlink"><defs><style type="text/css"></style></defs><path d="M105.493333 92.373333c9.386667-24.853333 29.653333-58.56 61.44-44.8 43.946667 22.613333 74.88 63.04 105.28 100.8C409.173333 66.666667 586.666667 58.24 727.36 135.786667c56.213333-52.373333 142.08-89.493333 216.746667-54.72 15.893333 88.64 14.933333 180.8-1.386667 269.44-6.506667 34.133333 10.773333 66.346667 16.746667 99.306666 30.933333 147.306667-20.693333 308.053333-129.493334 411.52-86.4 84.906667-207.893333 134.293333-329.173333 129.706667-157.226667-2.24-308.693333-94.613333-385.386667-231.466667-41.493333-75.2-65.066667-161.6-58.773333-247.786666-0.426667-51.626667 18.773333-99.946667 32.853333-148.693334-18.346667-89.386667-14.506667-184.32 16-270.72m652.586667 57.706667c16.32 11.84 32.64 23.786667 48.96 35.626667 26.133333-24.64 56.533333-70.72 97.493333-45.013334 21.226667 61.76-7.893333 129.066667 15.466667 190.506667 18.453333-77.226667 9.28-156.16 1.813333-233.92-58.133333-13.12-125.013333 6.613333-163.733333 52.8m-399.04-10.88C232.746667 181.44 137.28 290.56 97.28 415.573333c-21.653333 93.013333-23.36 196.373333 19.733333 283.733334 68.48 179.093333 269.76 293.226667 458.666667 259.626666 118.186667-17.706667 225.813333-89.706667 289.706667-190.186666 14.4-20.906667 1.066667-46.826667-1.6-69.333334-21.973333-17.6-42.56-39.68-70.933334-46.613333 35.093333-5.653333 70.72-8.426667 105.813334-14.08 15.466667-2.026667 28.16-12.586667 31.36-28.16 37.12-170.133333-51.306667-356.586667-202.026667-441.6-109.76-67.413333-249.28-72.533333-368.96-29.76z" fill="#8B593D" p-id="6086"></path><path d="M601.386667 312.533333c79.04-50.24 197.013333-17.706667 236.8 67.413334 15.04 29.333333-1.813333 60.16-18.026667 84.8-28.48 26.453333-63.68 45.973333-102.72 50.56-68.906667 14.72-135.146667-13.333333-202.56-22.506667 4.586667-26.24 12.373333-51.626667 22.4-76.16 18.453333-36.373333 39.466667-71.573333 64.106667-104.106667m-28.16 87.466667c-6.933333 15.253333-18.773333 30.826667-14.933334 48.64 13.973333 18.666667 34.666667 30.08 53.44 43.093333 5.653333-18.133333 8.96-37.546667 18.666667-54.08 40.426667-56.213333 143.253333-61.013333 172.906667 8.746667 8-19.093333 20.693333-40.96 9.066666-61.44-29.546667-55.573333-101.866667-83.2-161.813333-67.84-39.68 10.773333-58.24 50.346667-77.333333 82.88m80.106666 58.773333c15.36 17.92 30.186667 52.693333 59.84 42.026667 28.266667-3.413333 37.546667-30.933333 38.826667-55.573333-0.64-8.853333-1.92-26.346667-2.453333-35.2-13.546667 0.106667-26.986667 0.32-40.426667 0.746666l-0.213333-7.04c-25.92 9.92-43.946667 30.293333-55.573334 55.04zM184.32 324.8c27.2-18.026667 60.906667-18.346667 92.266667-21.12 16.32 9.28 32.64 18.666667 48.32 28.906667 30.293333 21.226667 51.093333 52.8 65.6 86.293333 0.106667 3.946667 0.213333 11.733333 0.213333 15.68 9.173333 12.8 29.44 23.146667 22.826667 41.706667-2.453333 14.293333-17.173333 21.226667-27.093334 30.186666-70.293333 5.44-146.986667 26.453333-213.653333-6.186666-42.026667-22.933333-42.24-75.2-45.44-116.906667 16.533333-21.653333 34.133333-43.306667 56.96-58.56m-21.226667 129.28c23.04 40.213333 74.346667 36.48 113.92 42.133333l-10.88-17.493333c26.88 15.68 62.293333 25.493333 89.28 4.586667 11.733333-21.333333 14.826667-45.973333 20.8-69.333334-8.213333 6.293333-16.533333 12.586667-24.853333 18.773334 17.066667-6.4-9.493333-28.053333-19.306667-27.413334-8.32 7.146667-16.32 14.72-24 22.613334-12.16-6.72-18.453333 22.293333-28.053333 28.906666-5.546667-14.826667-11.093333-29.546667-16.96-44.266666 14.293333-26.026667 44.906667-32 71.146667-39.146667-21.333333-21.546667-47.253333-39.573333-77.866667-44.373333-64.106667-13.44-132.8 66.666667-93.226667 125.013333zM380.373333 645.973333c5.013333 1.706667 14.933333 5.013333 19.946667 6.613334 3.626667 12.586667 7.146667 25.173333 11.306667 37.653333 5.226667 10.453333 11.2 20.586667 17.493333 30.506667 20.693333 15.893333 45.013333 30.933333 72.32 28.48 32.106667-3.733333 58.56-24.426667 88.32-35.52 4.266667 30.293333-32.853333 44.586667-56.213333 52.8-51.306667 16.853333-103.68-7.146667-136.96-46.4-32 34.133333-77.653333 44.48-122.88 44.16-1.173333-6.4-3.413333-19.093333-4.586667-25.493334 29.44-4.693333 62.72-0.853333 88.533333-18.133333 24.96-16.32 18.986667-49.28 22.72-74.666667z" fill="#8B593D" p-id="6087"></path><path d="M758.08 150.08c38.72-46.186667 105.6-65.92 163.733333-52.8 7.466667 77.76 16.64 156.693333-1.813333 233.92-23.36-61.44 5.76-128.746667-15.466667-190.506667-40.96-25.706667-71.36 20.373333-97.493333 45.013334-16.32-11.84-32.64-23.786667-48.96-35.626667zM359.04 139.2c119.68-42.773333 259.2-37.653333 368.96 29.76 150.72 85.013333 239.146667 271.466667 202.026667 441.6-3.2 15.573333-15.893333 26.133333-31.36 28.16-35.093333 5.653333-70.72 8.426667-105.813334 14.08-22.08-3.733333-45.44-4.266667-65.92-14.08-30.506667-26.773333-48.213333-64.64-69.653333-98.56 31.68 8.533333 63.573333 24.64 97.173333 18.24 32.533333-5.44 65.066667-10.88 98.026667-13.76a2233.066667 2233.066667 0 0 1-32.32-79.893333c16.213333-24.64 33.066667-55.466667 18.026667-84.8-39.786667-85.12-157.76-117.653333-236.8-67.413334-10.453333 5.44-21.013333 10.773333-31.466667 16.213334-5.226667-24.213333-10.24-48.533333-15.146667-72.746667-10.986667 6.72-21.866667 13.76-32.533333 20.8-3.946667 2.56-11.84 7.466667-15.786667 9.92-3.733333-40.533333-5.12-84.266667-33.92-116.373333-22.613333 36.906667-42.026667 75.52-63.786666 112.853333-8.853333-30.72-15.36-61.973333-20.373334-93.546667-11.52 5.653333-23.04 11.306667-34.346666 17.28-2.453333-22.72-1.173333-45.653333 5.013333-67.733333z" fill="#A97642" p-id="6088"></path><path d="M97.28 415.573333c40-125.013333 135.466667-234.133333 261.76-276.373333-6.186667 22.08-7.466667 45.013333-5.013333 67.733333-26.773333 23.04-38.08 57.066667-40.853334 91.413334-12.16 1.706667-24.426667 3.52-36.586666 5.333333-31.36 2.773333-65.066667 3.093333-92.266667 21.12-22.826667 15.253333-40.426667 36.906667-56.96 58.56-18.24 61.226667-1.28 127.573333 49.173333 168-34.026667 10.88-48.96 41.173333-54.506666 74.026667 16.64-1.28 33.28-2.773333 49.92-4.373334-8.533333 10.133333-16.96 20.266667-25.066667 30.72-11.306667 14.933333-20.586667 31.253333-29.866667 47.573334-43.093333-87.36-41.386667-190.72-19.733333-283.733334z" fill="#894811" p-id="6089"></path><path d="M408.746667 283.2c21.76-37.333333 41.173333-75.946667 63.786666-112.853333 28.8 32.106667 30.186667 75.84 33.92 116.373333 3.946667-2.453333 11.84-7.36 15.786667-9.92-8.853333 7.04-17.493333 14.4-26.026667 21.653333-2.56-11.733333-5.12-23.466667-7.786666-35.2-53.866667 17.92-106.346667 42.346667-163.413334 48.533334 0 5.12-0.106667 15.573333-0.106666 20.8-15.68-10.24-32-19.626667-48.32-28.906667 12.16-1.813333 24.426667-3.626667 36.586666-5.333333 2.773333-34.346667 14.08-68.373333 40.853334-91.413334 11.306667-5.973333 22.826667-11.626667 34.346666-17.28 5.013333 31.573333 11.52 62.826667 20.373334 93.546667zM330.56 571.413333c28.266667-4.48 56.64-10.666667 85.333333-9.386666 26.666667-0.32 42.453333 24.533333 61.226667 39.68-25.493333 25.813333-65.386667 47.466667-65.493333 88.533333-4.16-12.48-7.68-25.066667-11.306667-37.653333-5.013333-1.6-14.933333-4.906667-19.946667-6.613334-15.253333-5.973333-32.64-10.026667-43.84-22.933333-4.48-16.853333-5.226667-34.346667-5.973333-51.626667z" fill="#EED9B0" p-id="6090"></path><path d="M117.013333 699.306667c9.28-16.32 18.56-32.64 29.866667-47.573334 39.573333 36.053333 53.653333 89.493333 84.906667 131.52 84.586667 105.813333 236.693333 155.306667 365.973333 110.72 92.48-25.28 167.893333-96.213333 209.066667-181.546666 7.573333-26.346667 37.546667-11.306667 56.96-13.013334 2.666667 22.506667 16 48.426667 1.6 69.333334-63.893333 100.48-171.52 172.48-289.706667 190.186666-188.906667 33.6-390.186667-80.533333-458.666667-259.626666z" fill="#EED9B0" p-id="6091"></path><path d="M325.013333 311.786667c57.066667-6.186667 109.546667-30.613333 163.413334-48.533334 2.666667 11.733333 5.226667 23.466667 7.786666 35.2 8.533333-7.253333 17.173333-14.613333 26.026667-21.653333 10.666667-7.04 21.546667-14.08 32.533333-20.8 4.906667 24.213333 9.92 48.533333 15.146667 72.746667 10.453333-5.44 21.013333-10.773333 31.466667-16.213334-24.64 32.533333-45.653333 67.733333-64.106667 104.106667-1.493333-4.16-4.373333-12.48-5.866667-16.64-38.613333 5.44-76.373333 15.146667-114.026666 24.96-8.746667-9.706667-17.493333-19.306667-26.24-28.906667-0.106667 5.76-0.426667 17.173333-0.64 22.826667-14.506667-33.493333-35.306667-65.066667-65.6-86.293333 0-5.226667 0.106667-15.68 0.106666-20.8z" fill="#F2E4C6" p-id="6092"></path><path d="M127.36 383.36c3.2 41.706667 3.413333 93.973333 45.44 116.906667 66.666667 32.64 143.36 11.626667 213.653333 6.186666-25.173333 15.466667-50.88 33.6-55.893333 64.96 0.746667 17.28 1.493333 34.773333 5.973333 51.626667 11.2 12.906667 28.586667 16.96 43.84 22.933333-3.733333 25.386667 2.24 58.346667-22.72 74.666667-25.813333 17.28-59.093333 13.44-88.533333 18.133333 1.173333 6.4 3.413333 19.093333 4.586667 25.493334 45.226667 0.32 90.88-10.026667 122.88-44.16 33.28 39.253333 85.653333 63.253333 136.96 46.4 23.36-8.213333 60.48-22.506667 56.213333-52.8-29.76 11.093333-56.213333 31.786667-88.32 35.52-27.306667 2.453333-51.626667-12.586667-72.32-28.48 53.226667-14.4 117.12-4.16 159.146667-46.72 32.426667-27.2 41.493333-70.08 49.6-109.546667 2.773333-1.92 8.32-5.76 11.093333-7.786667-2.346667-10.666667-4.48-21.44-6.4-32.213333 24.96-2.773333 50.026667-5.333333 74.88-9.173333 39.04-4.586667 74.24-24.106667 102.72-50.56 10.24 26.773333 21.013333 53.44 32.32 79.893333-32.96 2.88-65.493333 8.32-98.026667 13.76-33.6 6.4-65.493333-9.706667-97.173333-18.24 21.44 33.92 39.146667 71.786667 69.653333 98.56 20.48 9.813333 43.84 10.346667 65.92 14.08 28.373333 6.933333 48.96 29.013333 70.933334 46.613333-19.413333 1.706667-49.386667-13.333333-56.96 13.013334-41.173333 85.333333-116.586667 156.266667-209.066667 181.546666-129.28 44.586667-281.386667-4.906667-365.973333-110.72-31.253333-42.026667-45.333333-95.466667-84.906667-131.52a983.466667 983.466667 0 0 1 25.066667-30.72c-16.64 1.6-33.28 3.093333-49.92 4.373334 5.546667-32.853333 20.48-63.146667 54.506666-74.026667-50.453333-40.426667-67.413333-106.773333-49.173333-168z" fill="#F2E4C6" p-id="6093"></path><path d="M442.346667 667.093333c23.786667-11.2 47.36-22.72 70.72-34.773333 9.173333 11.413333 18.346667 22.72 27.52 34.133333-25.28 29.546667-65.92 22.4-100.373334 23.893334l2.133334-23.253334z" fill="#F2E4C6" p-id="6094"></path><path d="M573.226667 400c19.093333-32.533333 37.653333-72.106667 77.333333-82.88 59.946667-15.36 132.266667 12.266667 161.813333 67.84 11.626667 20.48-1.066667 42.346667-9.066666 61.44-29.653333-69.76-132.48-64.96-172.906667-8.746667-9.706667 16.533333-13.013333 35.946667-18.666667 54.08-18.773333-13.013333-39.466667-24.426667-53.44-43.093333-3.84-17.813333 8-33.386667 14.933334-48.64zM163.093333 454.08c-39.573333-58.346667 29.12-138.453333 93.226667-125.013333 30.613333 4.8 56.533333 22.826667 77.866667 44.373333-26.24 7.146667-56.853333 13.12-71.146667 39.146667-2.56 18.346667-3.733333 37.013333-3.093333 55.573333l6.186666 10.56 10.88 17.493333c-39.573333-5.653333-90.88-1.92-113.92-42.133333z" fill="#FCF9F1" p-id="6095"></path><path d="M391.146667 396.053333c8.746667 9.6 17.493333 19.2 26.24 28.906667 37.653333-9.813333 75.413333-19.52 114.026666-24.96 1.493333 4.16 4.373333 12.48 5.866667 16.64-10.026667 24.533333-17.813333 49.92-22.4 76.16 67.413333 9.173333 133.653333 37.226667 202.56 22.506667-24.853333 3.84-49.92 6.4-74.88 9.173333 1.92 10.773333 4.053333 21.546667 6.4 32.213333-2.773333 2.026667-8.32 5.866667-11.093333 7.786667-8.106667 39.466667-17.173333 82.346667-49.6 109.546667-42.026667 42.56-105.92 32.32-159.146667 46.72a346.453333 346.453333 0 0 1-17.493333-30.506667c0.106667-41.066667 40-62.72 65.493333-88.533333-18.773333-15.146667-34.56-40-61.226667-39.68-28.693333-1.28-57.066667 4.906667-85.333333 9.386666 5.013333-31.36 30.72-49.493333 55.893333-64.96 9.92-8.96 24.64-15.893333 27.093334-30.186666 6.613333-18.56-13.653333-28.906667-22.826667-41.706667 0-3.946667-0.106667-11.733333-0.213333-15.68 0.213333-5.653333 0.533333-17.066667 0.64-22.826667m51.2 271.04l-2.133334 23.253334c34.453333-1.493333 75.093333 5.653333 100.373334-23.893334-9.173333-11.413333-18.346667-22.72-27.52-34.133333-23.36 12.053333-46.933333 23.573333-70.72 34.773333zM308.053333 427.946667c7.68-7.893333 15.68-15.466667 24-22.613334 9.813333-0.64 36.373333 21.013333 19.306667 27.413334-6.186667 4.8-12.373333 9.493333-18.666667 14.186666-6.08-4.8-18.453333-14.293333-24.64-18.986666zM709.12 410.773333c13.44-0.426667 26.88-0.64 40.426667-0.746666 0.533333 8.853333 1.813333 26.346667 2.453333 35.2-13.866667-0.213333-27.733333-0.64-41.6-1.28l-1.28-33.173334z" fill="#FCF9F1" p-id="6096"></path><path d="M653.333333 458.773333c11.626667-24.746667 29.653333-45.12 55.573334-55.04l0.213333 7.04 1.28 33.173334c13.866667 0.64 27.733333 1.066667 41.6 1.28-1.28 24.64-10.56 52.16-38.826667 55.573333-29.653333 10.666667-44.48-24.106667-59.84-42.026667zM259.946667 468.16c-0.64-18.56 0.533333-37.226667 3.093333-55.573333 5.866667 14.72 11.413333 29.44 16.96 44.266666 9.6-6.613333 15.893333-35.626667 28.053333-28.906666 6.186667 4.693333 18.56 14.186667 24.64 18.986666 6.293333-4.693333 12.48-9.386667 18.666667-14.186666 8.32-6.186667 16.64-12.48 24.853333-18.773334-5.973333 23.36-9.066667 48-20.8 69.333334-26.986667 20.906667-62.4 11.093333-89.28-4.586667l-6.186666-10.56z" fill="#532919" opacity=".97" p-id="6097"></path></svg>